<svg width="17" height="17" viewBox="0 0 17 17" fill="none" xmlns="http://www.w3.org/2000/svg">
<path d="M4.75814 15.0015C5.85938 15.6366 7.13711 16 8.4997 16C12.6418 16 16 12.6422 16 8.50002C16 4.35787 12.6421 1 8.5 1C4.35786 1 1 4.35787 1 8.50002C1 9.86262 1.36337 11.1404 1.99849 12.2416L2.00095 12.2459C2.06207 12.3518 2.09288 12.4052 2.10684 12.4557C2.12001 12.5034 2.12368 12.5462 2.12031 12.5955C2.11669 12.6485 2.09884 12.7034 2.06223 12.8132L1.42155 14.7352L1.42074 14.7378C1.28557 15.1433 1.21798 15.3461 1.26615 15.4812C1.30816 15.599 1.4014 15.692 1.51921 15.734C1.65401 15.782 1.85587 15.7148 2.25962 15.5802L2.26465 15.5783L4.18671 14.9376C4.29614 14.9011 4.35178 14.8826 4.40466 14.879C4.45396 14.8757 4.49648 14.8801 4.54411 14.8933C4.59474 14.9073 4.6482 14.9381 4.7547 14.9995L4.75814 15.0015Z" stroke="white" stroke-linecap="round" stroke-linejoin="round"/>
</svg>
