<svg width="8" height="12" viewBox="0 0 8 12" fill="none" xmlns="http://www.w3.org/2000/svg">
<path d="M5.85202 4.37974V2.73982C5.85202 2.24476 5.65924 1.77932 5.30916 1.42927C4.95911 1.07921 4.49367 0.886413 3.99861 0.886413C3.50355 0.886413 3.03811 1.07921 2.68806 1.42927C2.33798 1.77932 2.1452 2.24476 2.1452 2.73982V4.37974L1.25879 5.26616V2.73982C1.25879 2.37014 1.3313 2.01129 1.47427 1.67323C1.61229 1.34693 1.80977 1.05396 2.06126 0.802485C2.31273 0.55101 2.6057 0.353519 2.93201 0.215509C3.27008 0.0725068 3.62893 0 3.99861 0C4.36829 0 4.72714 0.0724931 5.06521 0.215496C5.39152 0.353519 5.68448 0.550997 5.93596 0.802471C6.18743 1.05395 6.38492 1.34691 6.52295 1.67322C6.66594 2.01128 6.73843 2.37014 6.73843 2.73981V5.26614L5.85202 4.37974Z" fill="white"/>
<path d="M3.9989 3.21603C1.79034 3.21603 0 5.00636 0 7.21493C0 9.4235 1.79032 11.2138 3.9989 11.2138C6.20747 11.2138 7.99779 9.4235 7.99779 7.21493C7.99779 5.00636 6.20745 3.21603 3.9989 3.21603ZM4.3216 7.50029L4.38668 8.50031C4.40121 8.7244 4.22349 8.91414 3.9989 8.91414C3.7743 8.91414 3.59658 8.7244 3.61111 8.50031L3.67619 7.50029C3.24299 7.36338 2.92896 6.95835 2.92896 6.47987C2.92896 5.88899 3.40802 5.40994 3.9989 5.40994C4.58977 5.40994 5.06883 5.889 5.06883 6.47987C5.06883 6.95834 4.7548 7.36336 4.3216 7.50029Z" fill="white"/>
</svg>
