<svg width="23" height="20" viewBox="0 0 23 20" fill="none" xmlns="http://www.w3.org/2000/svg">
<path d="M14.542 6.5H22C22.2761 6.5 22.5 6.72386 22.5 7V13C22.5 13.2761 22.2761 13.5 22 13.5H14.542C12.609 13.5 11.042 11.933 11.042 10C11.042 8.067 12.609 6.5 14.542 6.5Z" stroke="white"/>
<path d="M19 0C20.6567 0.000145047 22 1.34324 22 3V6H21V3C21 1.89552 20.1044 1.00015 19 1H3C1.89545 1 1 1.89543 1 3V17C1 18.1046 1.89545 19 3 19H19C20.1044 18.9999 21 18.1045 21 17V14H22V17C22 18.6568 20.6567 19.9999 19 20H3C1.34317 20 0 18.6569 0 17V3C0 1.34315 1.34317 0 3 0H19Z" fill="white"/>
</svg>
