<svg width="10" height="12" viewBox="0 0 10 12" fill="none" xmlns="http://www.w3.org/2000/svg">
<path d="M7.84492 2.83707C8.01324 4.13397 6.77868 4.72838 6.77868 4.72838C6.83476 0.351347 3.29949 0.405427 3.29949 0.405427C4.029 0.945835 4.87076 2.89115 2.73829 4.13397C2.70703 4.15215 2.67618 4.17056 2.6458 4.18897C-0.381506 6.02536 0.71321 10.3696 3.95516 11.1081C3.45289 10.2505 2.76391 8.32028 4.99982 6.27422C7.19662 8.28446 6.56991 10.183 6.07098 11.0622C7.82961 10.5808 9.1047 9.01796 9.13445 7.16331C9.16641 5.16713 7.84492 2.83707 7.84492 2.83707Z" fill="url(#paint0_linear_465_2431)"/>
<defs>
<linearGradient id="paint0_linear_465_2431" x1="3.22768" y1="0.405396" x2="3.22208" y2="11.1081" gradientUnits="userSpaceOnUse">
<stop stop-color="white"/>
<stop offset="1" stop-color="white"/>
</linearGradient>
</defs>
</svg>
