<svg width="29" height="36" viewBox="0 0 29 36" fill="none" xmlns="http://www.w3.org/2000/svg">
<g clip-path="url(#clip0_899_8963)">
<path d="M27.5982 12.3908C27.3962 12.5488 23.8299 14.574 23.8299 19.0774C23.8299 24.2862 28.3679 26.1289 28.5038 26.1745C28.4829 26.2869 27.7828 28.6982 26.1111 31.1552C24.6204 33.3174 23.0636 35.476 20.6953 35.476C18.3271 35.476 17.7176 34.0896 14.9836 34.0896C12.3192 34.0896 11.3719 35.5216 9.20564 35.5216C7.03934 35.5216 5.52781 33.5209 3.7899 31.064C1.77685 28.1787 0.150391 23.6965 0.150391 19.4424C0.150391 12.619 4.55263 9.00019 8.88522 9.00019C11.1873 9.00019 13.1064 10.5235 14.5517 10.5235C15.9274 10.5235 18.0728 8.90893 20.6919 8.90893C21.6845 8.90893 25.2508 9.00019 27.5982 12.3908ZM19.4485 6.02021C20.5317 4.72502 21.2979 2.92791 21.2979 1.1308C21.2979 0.881591 21.277 0.628872 21.2317 0.425293C19.4694 0.491983 17.3728 1.60816 16.1085 3.08586C15.1159 4.2231 14.1895 6.02021 14.1895 7.84189C14.1895 8.11567 14.2348 8.38945 14.2557 8.4772C14.3671 8.49826 14.5482 8.52283 14.7293 8.52283C16.3105 8.52283 18.2992 7.45579 19.4485 6.02021Z" fill="black"/>
</g>
<defs>
<clipPath id="clip0_899_8963">
<rect x="0.150391" y="0.425293" width="28.3499" height="35.0999" rx="14.1749" fill="white"/>
</clipPath>
</defs>
</svg>
