<svg width="23" height="23" viewBox="0 0 23 23" fill="none" xmlns="http://www.w3.org/2000/svg">
<path d="M6.43847 20.5198C8.00612 21.4239 9.825 21.9412 11.7647 21.9412C17.6612 21.9412 22.4416 17.1612 22.4416 11.2648C22.4416 5.36829 17.6616 0.588257 11.7651 0.588257C5.86867 0.588257 1.08865 5.36829 1.08865 11.2648C1.08865 13.2045 1.60592 15.0233 2.51004 16.591L2.51354 16.5971C2.60053 16.7479 2.6444 16.824 2.66427 16.8958C2.68301 16.9636 2.68825 17.0246 2.68345 17.0948C2.67829 17.1702 2.65288 17.2484 2.60078 17.4047L1.68874 20.1408L1.68759 20.1444C1.49516 20.7217 1.39895 21.0103 1.46753 21.2026C1.52733 21.3703 1.66006 21.5027 1.82776 21.5625C2.01966 21.6309 2.30701 21.5351 2.88176 21.3436L2.88892 21.3409L5.62502 20.4289C5.78081 20.3769 5.86001 20.3506 5.93529 20.3455C6.00547 20.3407 6.06599 20.347 6.1338 20.3657C6.20587 20.3857 6.28197 20.4295 6.43357 20.517L6.43847 20.5198Z" stroke="white" stroke-linecap="round" stroke-linejoin="round"/>
</svg>
