<svg width="13" height="13" viewBox="0 0 13 13" fill="none" xmlns="http://www.w3.org/2000/svg">
<path fill-rule="evenodd" clip-rule="evenodd" d="M1.00293 0L1.00293 5H0.00292969L0.00292969 0H1.00293Z" fill="white"/>
<path fill-rule="evenodd" clip-rule="evenodd" d="M13.0029 1.00002L8.00293 1.00002L8.00293 1.52588e-05L13.0029 1.54773e-05L13.0029 1.00002Z" fill="white"/>
<path fill-rule="evenodd" clip-rule="evenodd" d="M12.0029 13L12.0029 8.00002L13.0029 8.00002L13.0029 13L12.0029 13Z" fill="white"/>
<path fill-rule="evenodd" clip-rule="evenodd" d="M0.00292982 12L5.00293 12L5.00293 13L0.00292969 13L0.00292982 12Z" fill="white"/>
<path fill-rule="evenodd" clip-rule="evenodd" d="M5.00293 1H0.00292969V0L5.00293 0V1Z" fill="white"/>
<path fill-rule="evenodd" clip-rule="evenodd" d="M12.0029 5.00002L12.0029 1.52151e-05L13.0029 1.52588e-05L13.0029 5.00002L12.0029 5.00002Z" fill="white"/>
<path fill-rule="evenodd" clip-rule="evenodd" d="M8.00293 12L13.0029 12L13.0029 13L8.00293 13L8.00293 12Z" fill="white"/>
<path fill-rule="evenodd" clip-rule="evenodd" d="M1.00293 8.00002L1.00293 13L0.00292969 13L0.00293034 8.00002L1.00293 8.00002Z" fill="white"/>
</svg>
