<svg width="23" height="23" viewBox="0 0 23 23" fill="none" xmlns="http://www.w3.org/2000/svg">
<path d="M22.206 18.0211V10.7723C22.206 10.0742 22.2054 9.72491 22.1187 9.40005C22.0418 9.11215 21.9157 8.83971 21.745 8.59351C21.5523 8.3157 21.2845 8.08532 20.7479 7.62559L14.342 2.13799C13.3456 1.28443 12.8474 0.857866 12.2867 0.695535C11.7927 0.552498 11.2661 0.552498 10.772 0.695535C10.2118 0.857744 9.7143 1.2839 8.71941 2.13618L2.3114 7.62559C1.77473 8.08533 1.50702 8.3157 1.31439 8.59351C1.14369 8.83971 1.01658 9.11215 0.939739 9.40005C0.853031 9.72491 0.853031 10.0742 0.853031 10.7723V18.0211C0.853031 19.2387 0.853031 19.8472 1.05621 20.3274C1.3271 20.9677 1.84637 21.4771 2.50038 21.7423C2.99088 21.9412 3.61271 21.9412 4.85636 21.9412C6.10002 21.9412 6.72253 21.9412 7.21304 21.7423C7.86705 21.4771 8.38617 20.9679 8.65707 20.3276C8.86025 19.8473 8.86038 19.2385 8.86038 18.021V16.7144C8.86038 15.2712 10.0554 14.1013 11.5295 14.1013C13.0036 14.1013 14.1986 15.2712 14.1986 16.7144V18.021C14.1986 19.2386 14.1986 19.8473 14.4018 20.3276C14.6727 20.9679 15.192 21.4771 15.846 21.7423C16.3365 21.9412 16.9583 21.9412 18.202 21.9412C19.4456 21.9412 20.0681 21.9412 20.5586 21.7423C21.2126 21.4771 21.7318 20.9677 22.0027 20.3274C22.2058 19.8472 22.206 19.2387 22.206 18.0211Z" stroke="#007AFF" stroke-linecap="round" stroke-linejoin="round"/>
</svg>
