<svg width="15" height="15" viewBox="0 0 15 15" fill="none" xmlns="http://www.w3.org/2000/svg">
<path d="M1 7.5H4.61111M1 7.5C1 11.0899 3.91015 14 7.5 14M1 7.5C1 3.91015 3.91015 1 7.5 1M4.61111 7.5H10.3889M4.61111 7.5C4.61111 11.0899 5.90451 14 7.5 14M4.61111 7.5C4.61111 3.91015 5.90451 1 7.5 1M10.3889 7.5H14M10.3889 7.5C10.3889 3.91015 9.09549 1 7.5 1M10.3889 7.5C10.3889 11.0899 9.09549 14 7.5 14M14 7.5C14 3.91015 11.0899 1 7.5 1M14 7.5C14 11.0899 11.0899 14 7.5 14" stroke="white" stroke-linecap="round" stroke-linejoin="round"/>
</svg>
