<svg width="18" height="14" viewBox="0 0 18 14" fill="none" xmlns="http://www.w3.org/2000/svg">
<path d="M7.60447 0.988754C7.71374 0.224999 8.55354 -0.221608 9.25397 0.112009L9.40165 0.195509L17.4821 5.54286C18.1727 6.00014 18.1725 7.00818 17.4821 7.4656L9.40165 12.813C8.67691 13.2925 7.72113 12.8385 7.60447 12.0197L7.59311 11.8505V9.99315C6.14653 10.072 3.72037 10.466 1.57338 12.4451L1.3155 12.6922L0 14L0.332852 12.1811C1.41663 6.25548 4.9754 3.71333 7.59311 3.1541V1.15801L7.60447 0.988754ZM8.75639 3.61673V3.93432C8.75639 4.07674 8.64094 4.1922 8.49852 4.1922C6.6629 4.29491 3.33079 5.90013 1.87669 10.7187C4.60645 8.81363 7.45273 8.81744 8.46557 8.81739C8.62619 8.81739 8.75639 8.9476 8.75639 9.10821V9.39399V11.8505L16.8369 6.50423L8.75639 1.15801V3.61673Z" fill="white"/>
</svg>
