<svg width="21" height="16" viewBox="0 0 21 16" fill="none" xmlns="http://www.w3.org/2000/svg">
<path d="M16.98 1C17.9291 1.89466 18.6868 2.97642 19.2064 4.17853C19.726 5.38064 19.9964 6.67761 20.0009 7.98943C20.0054 9.30124 19.744 10.6001 19.2328 11.8058C18.7215 13.0116 17.9713 14.0987 17.0283 15M14.3884 3.80918C14.9579 4.34598 15.4125 4.99503 15.7242 5.7163C16.036 6.43756 16.1982 7.21574 16.2009 8.00283C16.2037 8.78993 16.0468 9.56923 15.74 10.2927C15.4333 11.0161 14.9831 11.6684 14.4174 12.2092M6.20726 11.2944L7.79873 13.2852C8.62836 14.3229 9.04318 14.8418 9.4066 14.8983C9.72121 14.9472 10.0391 14.8336 10.2534 14.5957C10.501 14.3209 10.501 13.6537 10.501 12.3195V3.72639C10.501 2.39215 10.501 1.72503 10.2534 1.45021C10.0391 1.2123 9.72121 1.09869 9.4066 1.14758C9.04318 1.20407 8.62836 1.72295 7.79873 2.76071L6.20726 4.75144C6.03966 4.96109 5.95586 5.06591 5.85217 5.14134C5.76031 5.20817 5.65737 5.25786 5.54821 5.28808C5.425 5.3222 5.29167 5.3222 5.02501 5.3222H3.67285C2.95446 5.3222 2.59526 5.3222 2.30498 5.41913C1.73372 5.60989 1.28559 6.06286 1.09687 6.64029C1.00098 6.93371 1.00098 7.29679 1.00098 8.02295C1.00098 8.7491 1.00098 9.11218 1.09687 9.4056C1.28559 9.98304 1.73372 10.436 2.30498 10.6268C2.59526 10.7237 2.95446 10.7237 3.67285 10.7237H5.02501C5.29167 10.7237 5.425 10.7237 5.54821 10.7578C5.65737 10.788 5.76031 10.8377 5.85217 10.9046C5.95586 10.98 6.03966 11.0848 6.20726 11.2944Z" stroke="white" stroke-linecap="round" stroke-linejoin="round"/>
</svg>
