<svg width="41" height="46" viewBox="0 0 41 46" fill="none" xmlns="http://www.w3.org/2000/svg">
<path d="M23.6948 9.26107C26.1149 13.0184 23.5081 16.5505 23.5081 16.5505C17.1086 3.00815 7.17425 8.05266 7.17425 8.05266C10.0507 8.70848 15.3501 13.5313 11.171 20.2971C11.1098 20.3961 11.0499 20.4953 10.9914 20.5939C5.16669 30.4204 13.2675 40.766 23.893 40.6447C24.886 40.6334 26.7972 40.156 28.3923 39.3791C29.7703 38.7079 31.5414 37.4865 33.176 35.1975C35.2035 32.3584 36.5249 26.5369 33.8303 20.7904C30.9299 14.6055 23.6948 9.26107 23.6948 9.26107Z" fill="#E64AC4"/>
<path d="M25.8214 17.7261C26.8308 20.1391 24.6911 21.9473 24.6911 21.9473C22.5226 13.4694 15.537 15.4665 15.537 15.4665C17.2658 16.119 19.949 19.4228 16.3656 22.9632C16.3131 23.015 16.2614 23.0671 16.2108 23.1188C11.1612 28.2839 14.85 35.0632 21.5892 35.994C22.2191 36.081 23.4945 35.9835 24.6115 35.6821C25.5766 35.4217 26.8666 34.8783 28.2186 33.7014C29.8956 32.2415 31.5399 28.9809 30.633 25.3855C29.6567 21.5157 25.8214 17.7261 25.8214 17.7261Z" fill="white"/>
</svg>
