<svg width="12" height="21" viewBox="0 0 12 21" fill="none" xmlns="http://www.w3.org/2000/svg">
<path d="M10.1281 3.63523C10.3723 5.57404 8.581 6.46265 8.581 6.46265C8.66238 -0.0807991 3.53276 4.70134e-05 3.53276 4.70134e-05C4.59128 0.807929 5.81265 3.71608 2.71847 5.57404C2.67312 5.60121 2.62835 5.62873 2.58427 5.65625C-1.80829 8.40157 -0.219875 14.896 4.48412 16C3.75535 14.7179 2.75564 11.8324 5.99991 8.77359C9.18743 11.7788 2.72394 19.6857 2 21C8.581 20.5 12 15.5 11.9992 10.1027C12.0456 7.11855 10.1281 3.63523 10.1281 3.63523Z" fill="#EF4BC5"/>
</svg>
