<svg width="232" height="79" viewBox="0 0 232 79" fill="none" xmlns="http://www.w3.org/2000/svg">
<rect x="8" y="17" width="218" height="37" fill="black" fill-opacity="0.8"/>
<g filter="url(#filter0_d_2001_30949)">
<path d="M44.5781 41H42.3828V32.7266C41.5807 33.4766 40.6354 34.0312 39.5469 34.3906V32.3984C40.1198 32.2109 40.7422 31.8568 41.4141 31.3359C42.0859 30.8099 42.5469 30.1979 42.7969 29.5H44.5781V41ZM60.3984 41H58.3594V39.7812C58.0208 40.2552 57.6198 40.6094 57.1562 40.8438C56.6979 41.0729 56.2344 41.1875 55.7656 41.1875C54.8125 41.1875 53.9948 40.8047 53.3125 40.0391C52.6354 39.2682 52.2969 38.1953 52.2969 36.8203C52.2969 35.4141 52.6276 34.3464 53.2891 33.6172C53.9505 32.8828 54.7865 32.5156 55.7969 32.5156C56.724 32.5156 57.526 32.901 58.2031 33.6719V29.5469H60.3984V41ZM54.5391 36.6719C54.5391 37.5573 54.6615 38.1979 54.9062 38.5938C55.2604 39.1667 55.7552 39.4531 56.3906 39.4531C56.8958 39.4531 57.3255 39.2396 57.6797 38.8125C58.0339 38.3802 58.2109 37.737 58.2109 36.8828C58.2109 35.9297 58.0391 35.2448 57.6953 34.8281C57.3516 34.4062 56.9115 34.1953 56.375 34.1953C55.8542 34.1953 55.4167 34.4036 55.0625 34.8203C54.7135 35.2318 54.5391 35.849 54.5391 36.6719ZM64.2109 35.2344L62.2188 34.875C62.4427 34.0729 62.8281 33.4792 63.375 33.0938C63.9219 32.7083 64.7344 32.5156 65.8125 32.5156C66.7917 32.5156 67.5208 32.6328 68 32.8672C68.4792 33.0964 68.8151 33.3906 69.0078 33.75C69.2057 34.1042 69.3047 34.7578 69.3047 35.7109L69.2812 38.2734C69.2812 39.0026 69.3151 39.5417 69.3828 39.8906C69.4557 40.2344 69.5885 40.6042 69.7812 41H67.6094C67.5521 40.8542 67.4818 40.638 67.3984 40.3516C67.362 40.2214 67.3359 40.1354 67.3203 40.0938C66.9453 40.4583 66.5443 40.7318 66.1172 40.9141C65.6901 41.0964 65.2344 41.1875 64.75 41.1875C63.8958 41.1875 63.2214 40.9557 62.7266 40.4922C62.237 40.0286 61.9922 39.4427 61.9922 38.7344C61.9922 38.2656 62.1042 37.849 62.3281 37.4844C62.5521 37.1146 62.8646 36.8333 63.2656 36.6406C63.6719 36.4427 64.2552 36.2708 65.0156 36.125C66.0417 35.9323 66.7526 35.7526 67.1484 35.5859V35.3672C67.1484 34.9453 67.0443 34.6458 66.8359 34.4688C66.6276 34.2865 66.2344 34.1953 65.6562 34.1953C65.2656 34.1953 64.9609 34.2734 64.7422 34.4297C64.5234 34.5807 64.3464 34.849 64.2109 35.2344ZM67.1484 37.0156C66.8672 37.1094 66.4219 37.2214 65.8125 37.3516C65.2031 37.4818 64.8047 37.6094 64.6172 37.7344C64.3307 37.9375 64.1875 38.1953 64.1875 38.5078C64.1875 38.8151 64.3021 39.0807 64.5312 39.3047C64.7604 39.5286 65.0521 39.6406 65.4062 39.6406C65.8021 39.6406 66.1797 39.5104 66.5391 39.25C66.8047 39.0521 66.9792 38.8099 67.0625 38.5234C67.1198 38.3359 67.1484 37.9792 67.1484 37.4531V37.0156ZM70.4375 32.7031H72.7734L74.7578 38.5938L76.6953 32.7031H78.9688L76.0391 40.6875L75.5156 42.1328C75.3229 42.6172 75.138 42.987 74.9609 43.2422C74.7891 43.4974 74.5885 43.7031 74.3594 43.8594C74.1354 44.0208 73.8568 44.1458 73.5234 44.2344C73.1953 44.3229 72.8229 44.3672 72.4062 44.3672C71.9844 44.3672 71.5703 44.3229 71.1641 44.2344L70.9688 42.5156C71.3125 42.5833 71.6224 42.6172 71.8984 42.6172C72.4089 42.6172 72.7865 42.4661 73.0312 42.1641C73.276 41.8672 73.4635 41.487 73.5938 41.0234L70.4375 32.7031ZM84.3672 31.7422V29.7031H91.875V31.2969C91.2552 31.9062 90.625 32.7812 89.9844 33.9219C89.3438 35.0625 88.8542 36.276 88.5156 37.5625C88.1823 38.8438 88.0182 39.9896 88.0234 41H85.9062C85.9427 39.4167 86.2682 37.8021 86.8828 36.1562C87.5026 34.5104 88.3281 33.0391 89.3594 31.7422H84.3672ZM100.383 29.5469V33.7578C101.091 32.9297 101.938 32.5156 102.922 32.5156C103.427 32.5156 103.883 32.6094 104.289 32.7969C104.695 32.9844 105 33.224 105.203 33.5156C105.411 33.8073 105.552 34.1302 105.625 34.4844C105.703 34.8385 105.742 35.388 105.742 36.1328V41H103.547V36.6172C103.547 35.7474 103.505 35.1953 103.422 34.9609C103.339 34.7266 103.19 34.5417 102.977 34.4062C102.768 34.2656 102.505 34.1953 102.188 34.1953C101.823 34.1953 101.497 34.2839 101.211 34.4609C100.924 34.638 100.714 34.9062 100.578 35.2656C100.448 35.6198 100.383 36.1458 100.383 36.8438V41H98.1875V29.5469H100.383ZM107.469 36.7344C107.469 36.0052 107.648 35.2995 108.008 34.6172C108.367 33.9349 108.875 33.4141 109.531 33.0547C110.193 32.6953 110.93 32.5156 111.742 32.5156C112.997 32.5156 114.026 32.9245 114.828 33.7422C115.63 34.5547 116.031 35.5833 116.031 36.8281C116.031 38.0833 115.625 39.125 114.812 39.9531C114.005 40.776 112.987 41.1875 111.758 41.1875C110.997 41.1875 110.271 41.0156 109.578 40.6719C108.891 40.3281 108.367 39.8255 108.008 39.1641C107.648 38.4974 107.469 37.6875 107.469 36.7344ZM109.719 36.8516C109.719 37.6745 109.914 38.3047 110.305 38.7422C110.695 39.1797 111.177 39.3984 111.75 39.3984C112.323 39.3984 112.802 39.1797 113.188 38.7422C113.578 38.3047 113.773 37.6693 113.773 36.8359C113.773 36.0234 113.578 35.3984 113.188 34.9609C112.802 34.5234 112.323 34.3047 111.75 34.3047C111.177 34.3047 110.695 34.5234 110.305 34.9609C109.914 35.3984 109.719 36.0286 109.719 36.8516ZM123.219 41V39.7578C122.917 40.2005 122.518 40.5495 122.023 40.8047C121.534 41.0599 121.016 41.1875 120.469 41.1875C119.911 41.1875 119.411 41.0651 118.969 40.8203C118.526 40.5755 118.206 40.2318 118.008 39.7891C117.81 39.3464 117.711 38.7344 117.711 37.9531V32.7031H119.906V36.5156C119.906 37.6823 119.945 38.3984 120.023 38.6641C120.107 38.9245 120.255 39.1328 120.469 39.2891C120.682 39.4401 120.953 39.5156 121.281 39.5156C121.656 39.5156 121.992 39.4141 122.289 39.2109C122.586 39.0026 122.789 38.7474 122.898 38.4453C123.008 38.138 123.062 37.3906 123.062 36.2031V32.7031H125.258V41H123.219ZM129.641 41H127.445V32.7031H129.484V33.8828C129.833 33.3255 130.146 32.9583 130.422 32.7812C130.703 32.6042 131.021 32.5156 131.375 32.5156C131.875 32.5156 132.357 32.6536 132.82 32.9297L132.141 34.8438C131.771 34.6042 131.427 34.4844 131.109 34.4844C130.802 34.4844 130.542 34.5703 130.328 34.7422C130.115 34.9089 129.945 35.2135 129.82 35.6562C129.701 36.099 129.641 37.026 129.641 38.4375V41ZM137.68 37.9609L139.805 37.7031C139.872 38.2448 140.055 38.6589 140.352 38.9453C140.648 39.2318 141.008 39.375 141.43 39.375C141.883 39.375 142.263 39.2031 142.57 38.8594C142.883 38.5156 143.039 38.0521 143.039 37.4688C143.039 36.9167 142.891 36.4792 142.594 36.1562C142.297 35.8333 141.935 35.6719 141.508 35.6719C141.227 35.6719 140.891 35.7266 140.5 35.8359L140.742 34.0469C141.336 34.0625 141.789 33.9349 142.102 33.6641C142.414 33.388 142.57 33.0234 142.57 32.5703C142.57 32.1849 142.456 31.8776 142.227 31.6484C141.997 31.4193 141.693 31.3047 141.312 31.3047C140.938 31.3047 140.617 31.4349 140.352 31.6953C140.086 31.9557 139.924 32.3359 139.867 32.8359L137.844 32.4922C137.984 31.7995 138.195 31.2474 138.477 30.8359C138.763 30.4193 139.159 30.0938 139.664 29.8594C140.174 29.6198 140.745 29.5 141.375 29.5C142.453 29.5 143.318 29.8438 143.969 30.5312C144.505 31.0938 144.773 31.7292 144.773 32.4375C144.773 33.4427 144.224 34.2448 143.125 34.8438C143.781 34.9844 144.305 35.2995 144.695 35.7891C145.091 36.2786 145.289 36.8698 145.289 37.5625C145.289 38.5677 144.922 39.4245 144.188 40.1328C143.453 40.8411 142.539 41.1953 141.445 41.1953C140.409 41.1953 139.549 40.8984 138.867 40.3047C138.185 39.7057 137.789 38.9245 137.68 37.9609ZM150.375 29.5C151.484 29.5 152.352 29.8958 152.977 30.6875C153.721 31.625 154.094 33.1797 154.094 35.3516C154.094 37.5182 153.719 39.0755 152.969 40.0234C152.349 40.8047 151.484 41.1953 150.375 41.1953C149.26 41.1953 148.362 40.7682 147.68 39.9141C146.997 39.0547 146.656 37.526 146.656 35.3281C146.656 33.1719 147.031 31.6198 147.781 30.6719C148.401 29.8906 149.266 29.5 150.375 29.5ZM150.375 31.3203C150.109 31.3203 149.872 31.4062 149.664 31.5781C149.456 31.7448 149.294 32.0469 149.18 32.4844C149.029 33.0521 148.953 34.0078 148.953 35.3516C148.953 36.6953 149.021 37.6198 149.156 38.125C149.292 38.625 149.461 38.9583 149.664 39.125C149.872 39.2917 150.109 39.375 150.375 39.375C150.641 39.375 150.878 39.2917 151.086 39.125C151.294 38.9531 151.456 38.6484 151.57 38.2109C151.721 37.6484 151.797 36.6953 151.797 35.3516C151.797 34.0078 151.729 33.0859 151.594 32.5859C151.458 32.0807 151.286 31.7448 151.078 31.5781C150.875 31.4062 150.641 31.3203 150.375 31.3203ZM160.328 32.7031H162.352V33.8359C163.076 32.9557 163.938 32.5156 164.938 32.5156C165.469 32.5156 165.93 32.625 166.32 32.8438C166.711 33.0625 167.031 33.3932 167.281 33.8359C167.646 33.3932 168.039 33.0625 168.461 32.8438C168.883 32.625 169.333 32.5156 169.812 32.5156C170.422 32.5156 170.938 32.6406 171.359 32.8906C171.781 33.1354 172.096 33.4974 172.305 33.9766C172.456 34.3307 172.531 34.9036 172.531 35.6953V41H170.336V36.2578C170.336 35.4349 170.26 34.9036 170.109 34.6641C169.906 34.3516 169.594 34.1953 169.172 34.1953C168.865 34.1953 168.576 34.2891 168.305 34.4766C168.034 34.6641 167.839 34.9401 167.719 35.3047C167.599 35.6641 167.539 36.2344 167.539 37.0156V41H165.344V36.4531C165.344 35.6458 165.305 35.125 165.227 34.8906C165.148 34.6562 165.026 34.4818 164.859 34.3672C164.698 34.2526 164.477 34.1953 164.195 34.1953C163.857 34.1953 163.552 34.2865 163.281 34.4688C163.01 34.651 162.815 34.9141 162.695 35.2578C162.581 35.6016 162.523 36.1719 162.523 36.9688V41H160.328V32.7031ZM174.727 31.5781V29.5469H176.922V31.5781H174.727ZM174.727 41V32.7031H176.922V41H174.727ZM186.727 41H184.531V36.7656C184.531 35.8698 184.484 35.2917 184.391 35.0312C184.297 34.7656 184.143 34.5599 183.93 34.4141C183.721 34.2682 183.469 34.1953 183.172 34.1953C182.792 34.1953 182.451 34.2995 182.148 34.5078C181.846 34.7161 181.638 34.9922 181.523 35.3359C181.414 35.6797 181.359 36.3151 181.359 37.2422V41H179.164V32.7031H181.203V33.9219C181.927 32.9844 182.839 32.5156 183.938 32.5156C184.422 32.5156 184.865 32.6042 185.266 32.7812C185.667 32.9531 185.969 33.1745 186.172 33.4453C186.38 33.7161 186.523 34.0234 186.602 34.3672C186.685 34.7109 186.727 35.2031 186.727 35.8438V41ZM188.188 38.6328L190.391 38.2969C190.484 38.724 190.674 39.0495 190.961 39.2734C191.247 39.4922 191.648 39.6016 192.164 39.6016C192.732 39.6016 193.159 39.4974 193.445 39.2891C193.638 39.1432 193.734 38.9479 193.734 38.7031C193.734 38.5365 193.682 38.3984 193.578 38.2891C193.469 38.1849 193.224 38.0885 192.844 38C191.073 37.6094 189.951 37.2526 189.477 36.9297C188.82 36.4818 188.492 35.8594 188.492 35.0625C188.492 34.3438 188.776 33.7396 189.344 33.25C189.911 32.7604 190.792 32.5156 191.984 32.5156C193.12 32.5156 193.964 32.7005 194.516 33.0703C195.068 33.4401 195.448 33.987 195.656 34.7109L193.586 35.0938C193.497 34.7708 193.328 34.5234 193.078 34.3516C192.833 34.1797 192.482 34.0938 192.023 34.0938C191.445 34.0938 191.031 34.1745 190.781 34.3359C190.615 34.4505 190.531 34.599 190.531 34.7812C190.531 34.9375 190.604 35.0703 190.75 35.1797C190.948 35.3255 191.63 35.5312 192.797 35.7969C193.969 36.0625 194.786 36.388 195.25 36.7734C195.708 37.1641 195.938 37.7083 195.938 38.4062C195.938 39.1667 195.62 39.8203 194.984 40.3672C194.349 40.9141 193.409 41.1875 192.164 41.1875C191.034 41.1875 190.138 40.9583 189.477 40.5C188.82 40.0417 188.391 39.4193 188.188 38.6328Z" fill="white"/>
</g>
<path d="M232 71C232 53.0898 0 53.0898 0 71V9.59489C0 -3.1983 232 -3.1983 232 9.59489V71Z" fill="url(#paint0_linear_2001_30949)"/>
<defs>
<filter id="filter0_d_2001_30949" x="30.8469" y="20.8" width="173.791" height="32.2672" filterUnits="userSpaceOnUse" color-interpolation-filters="sRGB">
<feFlood flood-opacity="0" result="BackgroundImageFix"/>
<feColorMatrix in="SourceAlpha" type="matrix" values="0 0 0 0 0 0 0 0 0 0 0 0 0 0 0 0 0 0 127 0" result="hardAlpha"/>
<feOffset/>
<feGaussianBlur stdDeviation="4.35"/>
<feComposite in2="hardAlpha" operator="out"/>
<feColorMatrix type="matrix" values="0 0 0 0 0 0 0 0 0 0 0 0 0 0 0 0 0 0 0.9 0"/>
<feBlend mode="normal" in2="BackgroundImageFix" result="effect1_dropShadow_2001_30949"/>
<feBlend mode="normal" in="SourceGraphic" in2="effect1_dropShadow_2001_30949" result="shape"/>
</filter>
<linearGradient id="paint0_linear_2001_30949" x1="0" y1="35.5" x2="232" y2="35.5" gradientUnits="userSpaceOnUse">
<stop stop-color="#A6D0FF"/>
<stop offset="0.134615" stop-color="#006FE9"/>
<stop offset="0.500955" stop-color="#0055B2"/>
<stop offset="0.854422" stop-color="#006ADE"/>
<stop offset="1" stop-color="#77B8FF"/>
</linearGradient>
</defs>
</svg>
